<?xml version="1.0" encoding="UTF-8" standalone="no"?>
<svg
   xmlns:dc="http://purl.org/dc/elements/1.1/"
   xmlns:cc="http://creativecommons.org/ns#"
   xmlns:rdf="http://www.w3.org/1999/02/22-rdf-syntax-ns#"
   xmlns:svg="http://www.w3.org/2000/svg"
   xmlns="http://www.w3.org/2000/svg"
   xmlns:sodipodi="http://sodipodi.sourceforge.net/DTD/sodipodi-0.dtd"
   xmlns:inkscape="http://www.inkscape.org/namespaces/inkscape"
   viewBox="0 0 720 720"
   version="1.1"
   id="svg4"
   sodipodi:docname="h1.svg"
   inkscape:version="0.92.5 (2060ec1f9f, 2020-04-08)">
  <metadata
     id="metadata10">
    <rdf:RDF>
      <cc:Work
         rdf:about="">
        <dc:format>image/svg+xml</dc:format>
        <dc:type
           rdf:resource="http://purl.org/dc/dcmitype/StillImage" />
      </cc:Work>
    </rdf:RDF>
  </metadata>
  <defs
     id="defs8" />
  <sodipodi:namedview
     pagecolor="#ffffff"
     bordercolor="#666666"
     borderopacity="1"
     objecttolerance="10"
     gridtolerance="10"
     guidetolerance="10"
     inkscape:pageopacity="0"
     inkscape:pageshadow="2"
     inkscape:window-width="1366"
     inkscape:window-height="740"
     id="namedview6"
     showgrid="false"
     inkscape:zoom="0.50000001"
     inkscape:cx="209.01166"
     inkscape:cy="369.36127"
     inkscape:window-x="0"
     inkscape:window-y="0"
     inkscape:window-maximized="1"
     inkscape:current-layer="svg4" />
  <path
     d="m 354.27989,352.06728 c -10.01867,0.20734 -1.47928,3.0699 -0.0767,0.004 0.88878,-1.94284 -3.63406,1.97787 -4.87956,0.81687 -4.27711,-4.87555 1.09592,-7.73888 5.45557,-8.37541 7.53542,-1.1002 14.25968,3.50432 15.72947,10.32958 2.15775,10.01645 -5.94457,19.12474 -15.72947,20.65915 -13.04196,2.04465 -24.60637,-8.20814 -26.21577,-20.65915 -2.02526,-15.66882 10.72067,-29.369 26.21577,-30.98873 18.76729,-1.9615 35.03322,12.91197 36.70208,30.98873 1.96683,21.3022 -15.49548,39.65656 -36.70208,41.31831 -24.48357,1.91922 -45.48592,-17.6158 -47.18839,-41.31831 -1.934,-26.93305 20.27069,-49.95939 47.18839,-51.64788 30.19856,-1.89376 55.95155,22.31835 57.6747,51.64788 1.91306,32.56134 -25.04459,60.27242 -57.6747,61.97746 -35.91225,1.87669 -66.42364,-27.02091 -68.16101,-61.97746 -1.89858,-38.18836 29.8185,-70.58926 68.16101,-72.30704 41.62465,-1.86459 76.89831,31.72474 78.64732,72.30704 1.88785,43.81666 -34.59241,80.90992 -78.64732,82.63661 -47.33705,1.85543 -87.37686,-36.42729 -89.13363,-82.63661 -1.8797,-49.44368 39.36632,-91.23186 89.13363,-92.96619 53.05075,-1.8483 97.85671,41.12985 99.61994,92.96619 1.87324,55.0707 -44.14023,101.55634 -99.61994,103.29576 -58.76315,1.84257 -108.33785,-45.8324 -110.10625,-103.29576 -1.86807,-60.69772 48.91543,-111.88083 110.10625,-113.62534 64.47555,-1.83786 118.82028,50.53496 120.59256,113.62534 1.8638,66.32474 -53.68933,122.20658 -120.59256,123.95492 -70.1879,1.83403 -129.30783,-55.23752 -131.07882,-123.95492 -1.86018,-71.95177 58.46325,-132.53234 131.07887,-134.28959 75.90036,-1.83072 139.79161,59.94007 141.5626,134.28959 1.85708,77.57879 -63.23716,142.85937 -141.5626,144.61662 -81.61275,1.82792 -150.27533,-64.64263 -152.04632,-144.61662 -1.85436,-83.20581 68.01106,-153.1864 152.04632,-154.94365 87.32516,-1.8255 160.75906,69.34518 162.54297,154.94365 1.85204,88.83283 -72.78497,163.51343 -162.54297,165.27068 -93.03756,1.82333 -171.24278,-74.04901 -173.02669,-165.27068 -1.84997,-94.45985 77.55887,-173.84046 173.02669,-175.59771 98.74996,-1.82143 181.72651,78.75156 183.51042,175.59771 1.84816,100.08687 -82.33278,184.16748 -183.51042,185.93747 -104.46236,1.81977 -192.21023,-83.45412 -193.99414,-185.93747 -1.84661,-105.7139 87.10669,-194.49452 193.99414,-196.2645 110.17347,-1.81825 202.69396,88.15667 204.47787,196.2645 1.84519,111.34091 -91.8806,204.82154 -204.47787,206.59153 C 238.89342,563.25064 141.60161,468.57444 139.80477,354.84214 137.96088,237.8742 236.46057,139.69356 354.77929,137.92358 476.37757,136.10788 578.4407,235.48536 580.23754,354.84214 582.08027,477.4371 478.80783,580.33048 354.77929,582.08773 227.46862,583.90228 120.63416,479.82339 118.83732,354.84214 116.99576,226.62653 225.04094,119.02677 354.77929,117.25679 487.7972,115.44325 599.40814,224.22368 601.20498,354.84214 603.04565,488.68605 490.22746,600.98454 354.77929,602.75452 216.04769,604.56716 99.666716,491.08508 97.869876,354.84214 96.030118,215.36994 213.62131,98.372711 354.77929,96.602727 499.22459,94.790977 620.38852,212.976 622.18536,354.84214 624.02421,499.94264 501.66002,621.6386 354.77929,623.40858 204.6203,625.21957 78.686341,502.33275 76.8895,354.84214 75.051423,204.11335 202.18875,77.718652 354.77929,75.948668 510.65198,74.138445 641.35597,201.72705 643.15281,354.84214 644.99024,511.19923 513.08224,642.29266 354.77929,644.07537 193.19291,645.88496 57.718892,513.59316 55.922052,354.84214 54.085267,192.85676 190.77558,57.051859 354.77929,55.281875 522.07937,53.472925 662.32342,190.46282 664.12026,354.84214 665.9564,522.45582 524.4967,662.95945 354.77929,664.72943 181.76552,666.53787 36.751443,524.83702 34.941676,354.84214 33.106055,181.60017 179.33526,36.397799 354.77929,34.627815 533.50675,32.820012 683.29087,179.21897 685.10063,354.84214 686.93561,533.69967 535.93701,683.61351 354.77929,685.38349 170.35106,687.19079 15.771068,536.09361 13.974227,354.84214 12.13977,170.35631 167.9208,15.74374 354.77929,13.961022 544.92122,12.15411 704.27124,167.94964 706.06808,354.84214 c 1.83407,190.11412 -158.7166,349.42543 -351.28879,351.20815 -2.0696,0.0191 -4.13945,0.0204 -6.20905,0.004"
     id="path2"
     inkscape:connector-curvature="0"
     style="fill:none;stroke:#000000;stroke-width:9.61283302"
     sodipodi:nodetypes="cscsccccccccscccccscscccccccccccccccccccccccccccccccccccccccccccccccccc" />
</svg>
