<?xml version="1.0" encoding="UTF-8" standalone="no"?>
<!-- Created with Inkscape (http://www.inkscape.org/) -->

<svg
   xmlns:dc="http://purl.org/dc/elements/1.1/"
   xmlns:cc="http://creativecommons.org/ns#"
   xmlns:rdf="http://www.w3.org/1999/02/22-rdf-syntax-ns#"
   xmlns:svg="http://www.w3.org/2000/svg"
   xmlns="http://www.w3.org/2000/svg"
   xmlns:sodipodi="http://sodipodi.sourceforge.net/DTD/sodipodi-0.dtd"
   xmlns:inkscape="http://www.inkscape.org/namespaces/inkscape"
   width="100%"
   height="100%"
   viewBox="0 0 100 100"
   version="1.1"
   id="svg8"
   inkscape:version="0.92.5 (2060ec1f9f, 2020-04-08)"
   sodipodi:docname="h2.svg">
  <defs
     id="defs2" />
  <sodipodi:namedview
     id="base"
     pagecolor="#ffffff"
     bordercolor="#666666"
     borderopacity="1.0"
     inkscape:pageopacity="0.0"
     inkscape:pageshadow="2"
     inkscape:zoom="3.959798"
     inkscape:cx="33.342427"
     inkscape:cy="45.635951"
     inkscape:document-units="px"
     inkscape:current-layer="layer1"
     showgrid="true"
     inkscape:window-width="1366"
     inkscape:window-height="740"
     inkscape:window-x="0"
     inkscape:window-y="0"
     inkscape:window-maximized="1"
     units="px"
     showguides="true"
     inkscape:snap-global="false">
    <inkscape:grid
       type="xygrid"
       id="grid816"
       spacingx="2"
       spacingy="2" />
  </sodipodi:namedview>
  <metadata
     id="metadata5">
    <rdf:RDF>
      <cc:Work
         rdf:about="">
        <dc:format>image/svg+xml</dc:format>
        <dc:type
           rdf:resource="http://purl.org/dc/dcmitype/StillImage" />
        <dc:title></dc:title>
      </cc:Work>
    </rdf:RDF>
  </metadata>
  <g
     inkscape:label="Layer 1"
     inkscape:groupmode="layer"
     id="layer1"
     transform="translate(0,-106.50001)">
    <path
       style="fill:#000000;fill-opacity:1;fill-rule:evenodd;stroke:#000000;stroke-width:0.16192496"
       d="m 51.566706,156.63237 c 0.07634,0.83705 -0.590253,1.56513 -1.412736,1.6385 -0.940111,0.0839 -1.757222,-0.66533 -1.837927,-1.5895 -0.09194,-1.05274 0.747642,-1.96711 1.782972,-2.05566 1.175597,-0.10057 2.195965,0.83761 2.29292,1.99421 0.10976,1.30928 -0.935775,2.44496 -2.224401,2.55089 -1.454457,0.11957 -2.715311,-1.04263 -2.830812,-2.47468 -0.130001,-1.61182 1.158713,-3.00831 2.746257,-3.134 1.782105,-0.1411 3.325278,1.28457 3.461812,3.04041 0.152882,1.96603 -1.420785,3.66757 -3.358448,3.81562 -2.164316,0.16536 -4.036572,-1.56795 -4.196838,-3.70171 -0.178595,-2.3778 1.72666,-4.43376 4.071574,-4.60698 2.607257,-0.19259 4.860627,1.89757 5.047546,4.4695 0.207381,2.85354 -2.081295,5.31872 -4.896938,5.52012 -3.117502,0.22298 -5.809617,-2.27854 -6.026322,-5.35543 -0.239461,-3.40003 2.489983,-6.33496 5.84656,-6.56782 3.702007,-0.2568 6.896454,2.71633 7.146319,6.37193 0.275073,4.0244 -2.958335,7.49579 -6.933209,7.76358 -4.368165,0.29429 -8.134785,-3.21673 -8.421439,-7.53208 -0.314481,-4.7343 3.492288,-8.81527 8.170363,-9.12176 5.123784,-0.33568 9.539095,3.78582 9.866407,8.84982 0.357921,5.53767 -4.098134,10.30822 -9.572307,10.65739 -5.97706,0.38123 -11.124612,-4.43007 -11.496701,-10.33974 -0.405671,-6.44302 4.782502,-11.9903 11.154071,-12.38641 6.936681,-0.43125 12.907371,5.15629 13.328628,12.01729 0.458007,7.45918 -5.552352,13.87794 -12.931474,14.32553 -8.011719,0.48598 -14.904198,-5.97163 -15.379324,-13.89871 -0.515189,-8.59548 6.41505,-15.98838 14.921138,-16.49228 9.211749,-0.54569 17.132802,6.8836 17.666754,16.00099 0.57753,9.86171 -7.378258,18.33976 -17.140496,18.90506 -10.546742,0.61073 -19.61169,-7.90005 -20.209711,-18.34197 -0.645336,-11.2681 8.450038,-20.951 19.607783,-21.58312 12.027172,-0.68139 22.360229,9.02926 23.02789,20.94033 0.718903,12.82533 -9.638838,23.84189 -22.342109,24.54656 -13.663971,0.75795 -25.398639,-10.27983 -26.141809,-23.8156 -0.798555,-14.54454 10.95343,-27.03309 25.363381,-27.81633 15.468519,-0.84078 28.748044,11.66077 29.57291,26.9881 0.884627,16.43739 -12.403028,30.54617 -28.692406,31.41434 -17.452711,0.93017 -32.430398,-13.18145 -33.343517,-30.47907 -0.977434,-18.516 13.997219,-34.40355 32.350845,-35.36334 19.628901,-1.02649 36.468624,14.85162 37.476853,34.31059 1.077346,20.79298 -15.745946,38.62858 -36.361232,39.68705 C 28.709604,196.91406 9.8330394,179.1025 8.7224816,157.2783 7.5377705,133.99689 26.382064,114.03283 49.469459,112.86828 c 24.609173,-1.2413 45.708742,18.68158 46.929211,43.08818 1.299889,25.99492 -19.74889,48.27949 -45.53244,49.55786 -11.723179,0.58125 -23.450188,-3.16065 -32.725502,-10.3409 l 3.253283,-4.04936 c 8.331444,6.44958 18.865096,9.81069 29.395307,9.28859 23.15977,-1.14829 42.066603,-21.16513 40.898992,-44.51477 -1.096278,-21.92294 -20.048723,-39.81845 -42.153629,-38.70347 -20.737985,1.04604 -37.664654,18.97853 -36.600501,39.89079 0.997547,19.60334 17.953202,35.60236 37.723369,34.5873 18.517433,-0.95077 33.62876,-16.97138 32.661057,-35.64843 -0.905642,-17.4788 -16.031716,-31.74113 -33.663152,-30.81911 -16.485934,0.86213 -29.936743,15.13293 -29.058775,31.76473 0.820199,15.53738 14.273734,28.21297 29.950429,27.37747 14.631747,-0.77983 26.567231,-13.45288 25.772631,-28.21758 -0.740944,-13.76759 -12.669106,-24.99694 -26.563532,-24.24175 -12.943573,0.70353 -23.499658,11.92124 -22.782364,24.98571 0.667541,12.15834 11.208072,22.07291 23.481575,21.39209 11.410576,-0.63296 20.714294,-10.52847 20.068541,-22.04867 -0.599723,-10.69898 -9.881268,-19.42145 -20.684533,-18.80941 -10.022316,0.5678 -18.192133,9.26534 -17.612465,19.38679 0.537164,9.37933 8.679649,17.02405 18.153142,16.47546 8.768815,-0.50779 15.915017,-8.12308 15.39625,-16.98126 -0.479601,-8.18959 -7.594606,-14.86287 -15.868959,-14.3727 -7.640496,0.45262 -13.865503,7.09321 -13.402739,14.81401 0.426777,7.1204 6.617866,12.92086 13.8143,12.48436 6.628213,-0.40206 12.026944,-6.16762 11.615557,-12.86775 -0.378411,-6.16282 -5.741505,-11.18175 -11.972298,-10.7944 -5.723186,0.35581 -10.383403,5.33859 -10.019013,11.12595 0.334224,5.30829 4.957954,9.63 10.326778,9.28756 4.91712,-0.31364 8.919721,-4.59873 8.598219,-9.57288 -0.294005,-4.54867 -4.260017,-8.25076 -8.862392,-7.94925 -4.202025,0.27529 -7.621412,3.94099 -7.338933,8.1935 0.257484,3.87624 3.640807,7.02996 7.564462,6.76563 3.57038,-0.24055 6.474763,-3.35869 6.227674,-6.97356 -0.22444,-3.28359 -3.093809,-5.95419 -6.419102,-5.72351 -3.015003,0.20916 -5.466695,2.84543 -5.251601,5.89947 0.194652,2.76378 2.612814,5.01075 5.413074,4.81044 2.529117,-0.1809 4.584896,-2.39521 4.398616,-4.95837 -0.167893,-2.31021 -2.191962,-4.18766 -4.533902,-4.01468 -2.106288,0.15559 -3.817663,2.00234 -3.657241,4.13817 0.143958,1.91663 1.82569,3.47356 3.769759,3.32501 1.740485,-0.13298 3.154017,-1.66138 3.016686,-3.42732 -0.122638,-1.57717 -1.508775,-2.85776 -3.10953,-2.73103 -1.425992,0.11292 -2.583566,1.36728 -2.466793,2.81509 0.103749,1.28632 1.236297,2.33025 2.542753,2.22284 1.157481,-0.0951 2.096627,-1.11525 1.998034,-2.29129 -0.08709,-1.03891 -1.00363,-1.88161 -2.059587,-1.79129 -0.929975,0.0796 -1.684115,0.90086 -1.601535,1.84648 0.07249,0.83011 0.806452,1.5031 1.650897,1.42775 0.738781,-0.0659 1.337545,-0.7199 1.268974,-1.47177 -0.05978,-0.65545 -0.640744,-1.18651 -1.308117,-1.12424 0.742984,-0.0693 1.389759,0.52192 1.456312,1.25161 z"
       id="path10"
       inkscape:connector-curvature="0"
       sodipodi:nodetypes="scscssscssscccscssssssssssssssssssssssssssssssccssssssssssssssssssssssssssssssssssssccsscccscccs" />
  </g>
</svg>
